<svg width="36" height="36" viewBox="0 0 36 36" fill="none" xmlns="http://www.w3.org/2000/svg">
<path d="M26.9034 25.3386C24.3418 28.2296 21.4754 30.2084 20.1318 31.0603C18.7248 31.9525 16.9409 31.9525 15.5339 31.0603C14.1903 30.2084 11.3239 28.2296 8.76227 25.3386C8.29111 24.8068 7.82113 24.2337 7.36809 23.6212C7.34804 23.6223 7.32821 23.6234 7.30859 23.6245C6.03698 23.6959 4.85813 24.3995 4.25945 25.5884C3.7039 26.6918 2.94031 28.4242 2.3775 30.5453C1.85488 32.5149 3.32578 34.2882 5.25699 34.3669C7.40634 34.4546 11.2669 34.5516 17.8334 34.5516C24.3999 34.5516 28.2604 34.4546 30.4098 34.3669C32.341 34.2882 33.8119 32.5149 33.2893 30.5453C32.7265 28.4242 31.9629 26.6918 31.4074 25.5884C30.8086 24.3995 29.6298 23.6959 28.3582 23.6245C28.3382 23.6234 28.318 23.6223 28.2976 23.6211C27.8446 24.2337 27.3746 24.8068 26.9034 25.3386Z" fill="#0D8955"/>
<path fill-rule="evenodd" clip-rule="evenodd" d="M5.94434 13.4269C5.94434 6.83555 11.2639 1.48633 17.833 1.48633C24.4022 1.48633 29.7217 6.83555 29.7217 13.4269C29.7217 17.6325 27.5978 21.1941 25.2352 23.8604C22.8675 26.5326 20.1938 28.3819 18.9383 29.1779C18.26 29.608 17.4061 29.608 16.7278 29.1779C15.4723 28.3819 12.7985 26.5326 10.4308 23.8604C8.06833 21.1941 5.94434 17.6325 5.94434 13.4269ZM17.833 17.8333C20.2953 17.8333 22.2913 15.8373 22.2913 13.375C22.2913 10.9128 20.2953 8.91677 17.833 8.91677C15.3708 8.91677 13.3748 10.9128 13.3748 13.375C13.3748 15.8373 15.3708 17.8333 17.833 17.8333Z" fill="#0D8955"/>
</svg>
