<svg width="36" height="36" viewBox="0 0 36 36" fill="none" xmlns="http://www.w3.org/2000/svg">
<path d="M16.7187 34.4833C14.7756 34.2612 12.427 33.5295 10.2787 32.7298C7.65339 31.7526 5.15625 30.6066 3.72508 29.9221C2.6229 29.3948 1.81318 28.3701 1.63704 27.1108C1.41121 25.4964 1.11475 22.4903 1.11475 17.8333C1.11475 14.1614 1.29905 11.5158 1.48772 9.76953C1.7704 9.90432 2.0949 10.0582 2.454 10.2271C3.79283 10.857 5.61599 11.6977 7.54958 12.5394C9.48023 13.3797 11.5353 14.2271 13.3341 14.8664C14.233 15.1859 15.082 15.4585 15.8278 15.6524C16.1316 15.7314 16.431 15.8008 16.7187 15.8549V34.4833Z" fill="#8A79F1"/>
<path d="M18.9478 34.4831C20.8908 34.261 23.2394 33.5293 25.3877 32.7297C28.013 31.7525 30.5102 30.6065 31.9414 29.9219C33.0435 29.3947 33.8532 28.3699 34.0294 27.1107C34.2552 25.4963 34.5517 22.4901 34.5517 17.8331C34.5517 14.1614 34.3674 11.5158 34.1787 9.76953C33.8962 9.90432 33.5718 10.0581 33.2129 10.2269C31.874 10.8568 30.0508 11.6976 28.1172 12.5392C26.1866 13.3795 24.1315 14.2269 22.3328 14.8662C21.4338 15.1857 20.5848 15.4584 19.839 15.6523C19.5351 15.7313 19.2355 15.8007 18.9478 15.8548V34.4831Z" fill="#8A79F1"/>
<path d="M3.72467 5.74397C2.94491 6.11698 2.31152 6.73901 1.94531 7.51692C2.31339 7.69377 2.81019 7.93087 3.40255 8.20959C4.72892 8.8336 6.53125 9.66469 8.43882 10.4949C10.3493 11.3264 12.3511 12.1509 14.0802 12.7655C14.9452 13.0729 15.7279 13.3228 16.3884 13.4946C17.0679 13.6712 17.5473 13.746 17.8331 13.746C18.1188 13.746 18.5982 13.6712 19.2776 13.4946C19.9382 13.3228 20.7209 13.0729 21.5859 12.7655C23.3149 12.1509 25.3168 11.3264 27.2273 10.4949C29.1348 9.66469 30.9372 8.8336 32.2635 8.20959C32.8557 7.93095 33.3523 7.69391 33.7205 7.51707C33.3542 6.73909 32.7208 6.117 31.941 5.74397C30.5098 5.05936 28.0127 3.91341 25.3874 2.93622C22.8085 1.97628 19.9409 1.11426 17.8328 1.11426C15.7247 1.11426 12.8572 1.97628 10.2783 2.93621C7.65298 3.91341 5.15584 5.05935 3.72467 5.74397Z" fill="#8A79F1"/>
</svg>
