<svg width="36" height="36" viewBox="0 0 36 36" fill="none" xmlns="http://www.w3.org/2000/svg">
<path d="M8.15516 24.9991C8.16601 23.0046 8.17284 20.635 8.17284 17.8335C8.17284 8.22629 8.09207 3.69759 8.04875 1.95866C8.044 1.76621 8.0281 1.55249 7.99414 1.3252C10.8523 1.66698 13.2508 2.3706 15.4675 3.02083C16.1858 3.23154 16.885 3.43665 17.5745 3.62203C21.187 4.5932 24.7554 5.11604 30.0627 3.39231C31.7981 2.82867 33.8992 3.70719 34.1616 5.82523C34.362 7.44253 34.5509 9.95134 34.5509 13.6672C34.5509 18.6809 34.2072 21.4986 33.9543 22.8949C33.7608 23.9635 32.9977 24.7611 32.0639 25.113C25.7966 27.4749 21.5776 27.3875 17.5132 26.6938C16.3937 26.5028 15.3131 26.2737 14.2208 26.0423C12.323 25.6401 10.3897 25.2303 8.15516 24.9991Z" fill="#0D8955"/>
<path d="M1.11426 17.8328C1.11426 8.36793 1.20837 4.31748 1.2473 3.04625C1.26212 2.56264 1.46381 1.68033 2.37154 1.3344C2.72224 1.20076 3.16373 1.11426 3.71491 1.11426C4.2661 1.11426 4.70759 1.20076 5.05828 1.3344C5.96602 1.68033 6.16772 2.56264 6.18252 3.04625C6.22146 4.31748 6.31557 8.36793 6.31557 17.8328C6.31557 27.2976 6.22145 31.3481 6.18252 32.6193C6.16771 33.1028 5.96602 33.9852 5.05828 34.3311C4.70759 34.4648 4.2661 34.5512 3.71491 34.5512C3.16373 34.5512 2.72224 34.4648 2.37154 34.3311C1.46381 33.9852 1.26212 33.1028 1.2473 32.6193C1.20836 31.3481 1.11426 27.2976 1.11426 17.8328Z" fill="#0D8955"/>
</svg>
