<svg width="36" height="36" viewBox="0 0 36 36" fill="none" xmlns="http://www.w3.org/2000/svg">
<path d="M8.17361 1.48633C10.0246 1.48633 11.4443 1.54079 12.477 1.60536C14.1184 1.70799 15.3824 2.97198 15.485 4.61333C15.5496 5.64608 15.604 7.06576 15.604 8.91677C15.604 10.7678 15.5496 12.1874 15.485 13.2203C15.3824 14.8616 14.1184 16.1256 12.477 16.2282C11.4443 16.2927 10.0246 16.3472 8.17361 16.3472C6.32259 16.3472 4.90292 16.2927 3.87015 16.2282C2.22881 16.1256 0.964829 14.8616 0.8622 13.2202C0.797622 12.1874 0.743164 10.7678 0.743164 8.91677C0.743164 7.06576 0.797629 5.64608 0.8622 4.61332C0.964829 2.97197 2.22881 1.70799 3.87016 1.60536C4.90292 1.54079 6.32259 1.48633 8.17361 1.48633Z" fill="#6353AC"/>
<path d="M8.17361 19.3193C10.0246 19.3193 11.4443 19.3738 12.477 19.4384C14.1184 19.541 15.3824 20.805 15.485 22.4464C15.5496 23.4791 15.604 24.8988 15.604 26.7498C15.604 28.6008 15.5496 30.0204 15.485 31.0532C15.3824 32.6946 14.1184 33.9586 12.477 34.0612C11.4443 34.1258 10.0246 34.1802 8.17361 34.1802C6.32259 34.1802 4.90292 34.1258 3.87015 34.0612C2.22881 33.9586 0.964829 32.6946 0.8622 31.0532C0.797622 30.0204 0.743164 28.6008 0.743164 26.7498C0.743164 24.8988 0.797629 23.4791 0.8622 22.4464C0.964829 20.805 2.22881 19.541 3.87016 19.4384C4.90292 19.3738 6.32259 19.3193 8.17361 19.3193Z" fill="#6353AC"/>
<path d="M26.7497 2.22949C22.9411 2.22949 21.0738 2.29686 20.1814 2.35183C19.4264 2.39833 18.7132 2.91321 18.6229 3.79274C18.5951 4.06295 18.5762 4.40343 18.5762 4.83015C18.5762 5.25686 18.5951 5.59735 18.6229 5.86756C18.7132 6.74708 19.4264 7.26197 20.1814 7.30847C21.0738 7.36344 22.9411 7.4308 26.7497 7.4308C30.5582 7.4308 32.4255 7.36344 33.3179 7.30847C34.073 7.26197 34.7861 6.74708 34.8764 5.86756C34.9042 5.59735 34.9231 5.25686 34.9231 4.83015C34.9231 4.40343 34.9042 4.06295 34.8764 3.79274C34.7861 2.91321 34.073 2.39833 33.3179 2.35183C32.4255 2.29686 30.5582 2.22949 26.7497 2.22949Z" fill="#6353AC"/>
<path d="M24.5205 10.4023C22.1788 10.4023 20.8766 10.4542 20.1607 10.5048C19.3365 10.5631 18.6625 11.164 18.6043 12.0431C18.5875 12.296 18.5762 12.6116 18.5762 13.003C18.5762 13.3944 18.5875 13.71 18.6043 13.9629C18.6625 14.842 19.3365 15.4429 20.1607 15.5012C20.8766 15.5518 22.1788 15.6037 24.5205 15.6037C26.8622 15.6037 28.1644 15.5518 28.8803 15.5012C29.7046 15.4429 30.3785 14.842 30.4368 13.9629C30.4535 13.71 30.4649 13.3944 30.4649 13.003C30.4649 12.6116 30.4535 12.296 30.4368 12.0431C30.3785 11.164 29.7046 10.5631 28.8803 10.5048C28.1644 10.4542 26.8622 10.4023 24.5205 10.4023Z" fill="#6353AC"/>
<path d="M24.5205 28.2354C22.1788 28.2354 20.8766 28.2872 20.1607 28.3378C19.3365 28.3961 18.6625 28.997 18.6043 29.8761C18.5875 30.129 18.5762 30.4446 18.5762 30.836C18.5762 31.2274 18.5875 31.543 18.6043 31.7959C18.6625 32.675 19.3365 33.2759 20.1607 33.3342C20.8766 33.3848 22.1788 33.4367 24.5205 33.4367C26.8622 33.4367 28.1644 33.3848 28.8803 33.3342C29.7046 33.2759 30.3785 32.675 30.4368 31.7959C30.4535 31.543 30.4649 31.2274 30.4649 30.836C30.4649 30.4446 30.4535 30.129 30.4368 29.8761C30.3785 28.997 29.7046 28.3961 28.8803 28.3378C28.1644 28.2872 26.8622 28.2354 24.5205 28.2354Z" fill="#6353AC"/>
<path d="M26.7497 20.0625C22.9411 20.0625 21.0738 20.1299 20.1814 20.1848C19.4264 20.2313 18.7132 20.7462 18.6229 21.6257C18.5951 21.896 18.5762 22.2364 18.5762 22.6632C18.5762 23.0899 18.5951 23.4303 18.6229 23.7006C18.7132 24.5801 19.4264 25.095 20.1814 25.1415C21.0738 25.1964 22.9411 25.2638 26.7497 25.2638C30.5582 25.2638 32.4255 25.1964 33.3179 25.1415C34.073 25.095 34.7861 24.5801 34.8764 23.7006C34.9042 23.4303 34.9231 23.0899 34.9231 22.6632C34.9231 22.2364 34.9042 21.896 34.8764 21.6257C34.7861 20.7462 34.073 20.2313 33.3179 20.1848C32.4255 20.1299 30.5582 20.0625 26.7497 20.0625Z" fill="#6353AC"/>
</svg>
