<svg width="36" height="36" viewBox="0 0 36 36" fill="none" xmlns="http://www.w3.org/2000/svg">
<path d="M23.5914 1.29411C20.8708 1.13755 16.2279 0.97583 11.6503 1.31056C10.1284 1.42186 8.81428 2.40569 8.2729 3.82851C5.96471 9.89474 4.86513 15.4902 4.39666 18.4547C4.10277 20.3144 5.45449 21.9726 7.31366 22.1003C8.90241 22.2094 11.2358 22.3223 13.9603 22.3074C13.67 24.6657 13.3675 27.8117 13.0672 31.1959C12.7983 34.2276 16.4438 36.05 18.6136 33.725C24.1841 27.7563 29.2906 21.1186 32.0913 17.3358C33.6319 15.2548 32.275 12.3439 29.6443 12.2755C28.4316 12.2439 26.9442 12.2257 25.1939 12.2409C25.7116 9.98294 26.1796 7.53074 26.6098 5.16328C26.9592 3.24054 25.582 1.40865 23.5914 1.29411Z" fill="#FF9BB3"/>
</svg>
