<svg width="36" height="36" viewBox="0 0 36 36" fill="none" xmlns="http://www.w3.org/2000/svg">
<path fill-rule="evenodd" clip-rule="evenodd" d="M17.8329 1.11426C15.8855 1.11426 14.4263 1.2437 13.3761 1.39907C11.8228 1.6289 10.7652 2.85299 10.4042 4.30762L9.95553 6.11538C12.2057 4.59963 14.9161 3.71491 17.8332 3.71491C20.75 3.71491 23.4602 4.59945 25.7102 6.11493L25.2616 4.30762C24.9007 2.85299 23.8431 1.6289 22.2898 1.39907C21.2395 1.2437 19.7804 1.11426 17.8329 1.11426ZM10.4042 31.3579L9.95553 29.5501C12.2057 31.0658 14.9161 31.9506 17.8332 31.9506C20.75 31.9506 23.4602 31.0661 25.7102 29.5506L25.2616 31.3579C24.9007 32.8125 23.8431 34.0366 22.2898 34.2664C21.2395 34.4218 19.7804 34.5512 17.8329 34.5512C15.8855 34.5512 14.4263 34.4218 13.3761 34.2664C11.8228 34.0366 10.7652 32.8125 10.4042 31.3579ZM5.57275 17.8328C5.57275 11.0616 11.0618 5.57252 17.833 5.57252C24.6041 5.57252 30.0932 11.0616 30.0932 17.8328C30.0932 24.6039 24.6041 30.093 17.833 30.093C11.0618 30.093 5.57275 24.6039 5.57275 17.8328Z" fill="#8A79F1"/>
</svg>
